<?xml version="1.0" encoding="UTF-8"?><svg id="Layer_1" xmlns="http://www.w3.org/2000/svg" viewBox="0 0 238.84 133.01"><defs><style>.cls-1{fill:#faca4e;}.cls-2{fill:#48e59c;}</style></defs><g id="EY"><path class="cls-1" d="m237.66,26.98c-1.1-.5-2.39.16-3.41.59-1.05.44-2.07.93-3.06,1.5-4.36,2.53-7.97,6.37-10.17,10.91-1.32.39-2.65.78-3.95,1.23-2.1.73-4.14,1.64-6.1,2.69C222.92,24.82,231.2,7.89,230.89,0c-2.33,4.77-28.52,34.35-53.5,57.24-.03-.03-.06-.05-.09-.08-1.65-1.25-2.33-3.39-2.83-5.3-.3-1.17-.56-2.35-.83-3.53-.3-1.32-.69-2.65-.89-3.99-.17-1.1.05-1.98.83-2.77,1.07-.8,2.42-1.29,3.54-1.93,2.09-1.19,3.41-3,4.31-5.2,1-2.44,1.04-5.32,2.4-7.58,3.54-5.87-4.36-12.2-9.69-3.28-2.47,4.13-2.18,10.12.33,14.5-.59.52-1.24.97-1.84,1.47-.2.16-.38.34-.56.52-.61.48-1.15,1.04-1.56,1.75-.26.44-.16.87.1,1.17-.08.83.05,1.68.22,2.5.55,2.57,1.09,5.18,1.82,7.71.61,2.09,1.54,4.03,3.19,5.45-10.82,9.81-21.32,18.24-29.44,22.71-.55-2.1-1.54-4.6-2.85-7.38,3.35-4.63,5.6-10.06,6.47-15.72.27-1.79.43-3.6.44-5.41,0-1.67.14-3.81-.79-5.27-1.02-1.6-3.18-1.88-4.42-.38-1.22,1.48-1.32,3.69-1.09,5.5.28,2.26,1.11,4.37,1.67,6.57.22.86.4,1.77.46,2.68-.16,1.18-.36,2.36-.63,3.52-.04.16-.03.32,0,.46-.16.37-.32.74-.49,1.11-.77,1.65-1.67,3.24-2.68,4.75-.86-1.7-4.14-6.75-8.34-13.05.41-.98.55-2.09.67-3.11.24-1.98.32-3.95-.16-5.95.03-.05.05-.1.06-.15.03-.48.07-.96.1-1.44,0-.02,0-.04,0-.06.06-.11.08-.24.06-.39-.29-2.7,2.08-4.98.89-7.78-.47-1.09-1.43-2.1-2.78-2.57-1.43-.49-2.98-.21-3.63.86-.61.99-.38,2.32-.1,3.44.3,1.19.8,2.35,1.35,3.5,1.12,2.33,2.24,4.56,2.31,7.01.04,1.45-.14,2.89-.35,4.31-10.08-15.03-24.06-35.24-24.06-35.24,10.01,19.86,16.55,38.23,18.23,54.52-1.5-1.29-3.25-2.33-5.05-3.08-.53-.22-1.08-.43-1.62-.62-.57-.3-1.14-.61-1.71-.89-1.91-.95-3.85-1.81-5.83-2.61-.14-.06-.29-.11-.43-.17-3.06-2.05-5.58-4.84-7.4-8.09-1.41-2.51-2.8-4.87-5.38-6.34-1.22-.7-2.57-1.26-3.9-1.72-1.38-.48-3.03-.11-3.33,1.51-.24,1.26.42,2.51.94,3.62.54,1.15,1.18,2.26,1.89,3.32,1.48,2.19,3.27,4.16,5.33,5.81,2.1,1.68,4.4,3.02,6.9,4,2.99,1.17,6.14,1.8,9.23,2.64.97.26,2,.58,3.02.96.81.44,1.62.88,2.42,1.35,1.61.93,3.19,1.93,4.73,2.97.16.17.31.35.46.53,1.27,19.53-4.82,35.39-20.77,47.53-4.2.91-21.72,4.5-36.85-4.06-18.34-10.37-48.86-10.66-48.99-9.11l-1.47-37.62c11.08-5.68,54.16-3.08,56.6-1.14l-7.59-8.21c-20.05-1.8-35.27-.32-50.67,1.04L10.62,9.2c7.27,1.04,31.26-1.35,31.26-1.35L34.51.48C32.43,2.55,3.56.48,3.56.48-.59,24.57,0,133.01,0,133.01h132.67c9.22-4.33,30.2-24.25,45.1-42.68,1.33.21,2.68.26,4.02.12,1.18-.12,2.3-.44,3.46-.67.5-.1.92-.06,1.32.05.07.21.22.41.48.55,2.14,1.18,4.24.82,6.14-.19,3.82-1.28,7.72-2.68,10.85-5.29,2.88-2.41,6.04-7.35,3-10.84-1.46-1.68-3.96-2.02-6-1.41-2.12.63-4.02,2.1-5.47,3.74-1.41,1.6-2.5,3.46-3.16,5.49-.36,1.09-.52,2.21-.72,3.33-.18,1.02-.4,2.11-1.19,2.84-.92.85-1.79.3-2.78-.11-1.38-.57-2.68-.29-4.08.06-1.41.35-2.85.46-4.27.37,10.23-12.79,20.49-27.09,29.14-40.56.93-.59,1.88-1.16,2.84-1.7,2.27-1.26,4.64-2.31,7.11-3.12,2.55-.84,5.16-1.49,7.7-2.35,4.37-1.49,8.76-3.79,11.27-7.83.91-1.47,2.55-4.77.24-5.83Z"/><path class="cls-2" d="m174.79,27.87c.64-2.45,3.37-5.18,4.82-4.81.81.21,2.27,1.07,2.37,2.55.08,1.16-1.18,2.83-1.36,3.93-.84,5.06-4.47,7.36-4.39,6.22,0,0-2.08-5.45-1.45-7.9Z"/><path class="cls-2" d="m133.55,49.13c-.61-.44-3.64-8.53-3.64-8.53.57-3.77,2.72-2.5,5.37.4.41-.13-.05,2.48-.83,3.7-1.02,1.6-.36,3.87-.9,4.42Z"/><path class="cls-2" d="m145,50.83c.16.76.48,1.47.71,2.21.28.89.43,1.82.59,2.74.13.81.27,1.62.27,2.44,0,1.07-.22,2.23.3,3.16.06.1.13.2.22.28.3.23.75.06,1.02-.2.91-.87.64-2.34.79-3.58.06-.55.22-1.08.31-1.63.1-.61.12-1.23.15-1.85.04-1.16.08-2.31.12-3.47.02-.61.04-1.25-.24-1.8-.22-.44-.61-.77-1.02-1.04-.53-.34-1.14-.61-1.77-.54-1.51.15-1.7,2.13-1.45,3.29Z"/><path class="cls-2" d="m96.63,60.9c-.64-1.05-1.06-2.22-1.68-3.28-.4-.69-.88-1.34-1.21-2.06s-.49-1.57-.21-2.32c.85.09,1.7.18,2.55.27.33.03.67.07.95.26.39.27.55.77.88,1.11.38.41.97.59,1.38.98.61.58.71,1.51,1.03,2.28.6,1.42,1.99,2.34,2.76,3.67.24.42.42.88.71,1.27.56.76,1.46,1.19,2.24,1.71s1.55,1.29,1.55,2.24c-1.16.43-2.38-.3-3.54-.73-1.59-.58-2.51-.6-3.87-1.68-1.35-1.07-2.64-2.24-3.54-3.72Z"/><path class="cls-2" d="m224.32,37.02c.88-1,1.51-2.25,2.48-3.16,1.84-1.76,2.33-2.4,4.6-3.55.92-.46,4.13-2.17,4.84-1.43.25.26.34,1.07.39,1.43.12.94-.49,2.08-1.12,2.8-.87.99-1.66,1.56-2.51,2.55-1.12,1.32-2.93,2.02-4.47,2.61-.81.31-1.83.73-2.65,1.01-.98.33-1.86.35-2.86.22,0-.89.72-1.81,1.3-2.47Z"/><path class="cls-2" d="m194.35,82.3c.34-.87.75-1.72,1.23-2.52.67-1.14,1.47-2.22,2.48-3.07s2.24-1.48,3.55-1.63c.69-.08,1.39-.04,2.07.14.48.12.97.32,1.32.68.31.32.49.73.62,1.15.1.33.18.67.18,1.01,0,.32-.07.64-.15.95-.18.8-.37,1.61-.79,2.31-.24.42-.56.79-.87,1.15-.49.56-.98,1.12-1.57,1.57-.42.32-.89.59-1.35.85-1.35.77-2.7,1.53-4.14,2.11s-2.97.96-4.52.93c-.28-.38.59-.66.75-.88.23-.33.19-.92.25-1.3.2-1.18.51-2.33.95-3.45Z"/></g></svg>