<?xml version="1.0" encoding="utf-8"?>
<!-- Generator: Adobe Illustrator 27.4.0, SVG Export Plug-In . SVG Version: 6.00 Build 0)  -->
<svg version="1.1" id="Layer_1" xmlns="http://www.w3.org/2000/svg" xmlns:xlink="http://www.w3.org/1999/xlink" x="0px" y="0px"
	 viewBox="0 0 184.3 184.3" style="enable-background:new 0 0 184.3 184.3;" xml:space="preserve">
<style type="text/css">
	.st0{fill:#CEF7ED;}
	.st1{fill:#48E59C;}
	.st2{fill:#253942;}
</style>
<g id="EY">
	<path class="st0" d="M92.1,0L92.1,0c50.9,0,92.2,41.3,92.2,92.1v0c0,50.9-41.3,92.1-92.1,92.1h0C41.3,184.3,0,143,0,92.2v0
		C0,41.3,41.3,0,92.1,0z"/>
	<g>
		<path class="st1" d="M47.9,99.8c3.2-8.1,7-16.1,11.5-23.6c6.3-10.7,13.8-20.8,23.2-28.8s21-13.9,33.3-15.3
			c6.5-0.7,13-0.4,19.4,1.3c4.5,1.1,9.1,3,12.4,6.4c2.9,3,4.6,6.8,5.8,10.8c0.9,3.1,1.7,6.3,1.7,9.5c0,3-0.7,6-1.4,8.9
			c-1.7,7.5-3.5,15.1-7.4,21.6c-2.2,3.9-5.2,7.4-8.1,10.8c-4.6,5.2-9.2,10.5-14.7,14.7c-3.9,3-8.3,5.5-12.6,8
			c-12.6,7.2-25.3,14.3-38.8,19.8s-27.8,9-42.3,8.7c-2.6-3.6,5.5-6.2,7-8.2c2.2-3.1,1.8-8.6,2.3-12.2C41,121.1,43.9,110.3,47.9,99.8
			L47.9,99.8z"/>
		<path class="st2" d="M140.1,70.5c-7.9-0.2-15.7,1.7-22.5,5.5c1.1-2.3,1.9-4.8,2.7-7.3c1.4-4.5,3.2-8.6,6.5-12.1
			c3-3.2,6.8-5.6,11-7c2.2-0.7,1.3-4.2-1-3.5c-7.6,2.5-14.3,8.1-17.7,15.4c-1.5,3.2-2.3,6.6-3.5,9.9c0-0.5-0.1-1-0.1-1.5
			c-0.9-7.7-5.9-14-7.8-21.4c-0.6-2.2-4-1.3-3.5,1c1.7,6.8,6.1,12.6,7.5,19.5c1.2,6.3-1.5,13-6.8,16.6c-0.3,0.2-0.5,0.5-0.7,0.8
			c-2.7,2.2-5.5,4.3-8.2,6.3c0.8-3.5,0.6-7.4-0.2-10.8c-0.6-2.9-2.1-4.9-4.5-6.6c-1.1-0.8-1.9-1.3-2-2.8c-0.1-1.4-0.3-2.9-1.4-3.9
			c-1.7-1.5-4.3,1-2.5,2.5c0.7,0.6,0.3,2,0.5,2.9c0.3,1.2,1,2.3,2,3.1c0.9,0.8,2,1.3,2.9,2.2c0.8,0.8,1.2,1.8,1.5,2.8
			c0.6,2.3,0.7,4.9,0.6,7.3c-0.1,2.6-0.9,5.1-2.8,6.9c-0.2,0.2-0.3,0.4-0.4,0.5c-0.3,0.3-0.4,0.7-0.4,1.1c-0.3,0.3-0.7,0.6-1,0.9
			c-2.5,2.2-4.8,4.6-7,7c0.2-1.5,0.1-3.1-0.4-4.6c-0.9-2.4-2.2-4.9-3.9-6.9c-1.7-2.1-4-3.6-6.2-5c-1.9-1.3-3.7,1.8-1.8,3.1
			c1.9,1.3,3.9,2.5,5.4,4.3c1.4,1.7,2.7,4.1,3.3,6.2c0.6,2.1-0.2,4.1-0.9,6c-0.4,1-0.7,2-1,3.1c-2.2,2.4-4.4,4.9-6.6,7.2
			c-0.7,0.8-1.5,1.5-2.2,2.2c0.3-0.5,0.5-1,0.8-1.6c1.3-2.9,2-5.8,1-8.9c-0.5-1.4-0.6-2.4-0.3-3.8c0.2-1.5,0.5-3-0.1-4.4
			c-0.8-2.2-4.2-1.2-3.5,1c0.4,1.1,0.1,2.1-0.1,3.2c-0.2,1.3-0.3,2.6,0.1,3.9c0.3,1.3,0.9,2.4,0.8,3.8c-0.1,1.3-0.6,2.6-1.2,3.8
			c-1.1,2.4-2.5,4.7-4,6.9c-1.4,2-3,4-5.1,5.3c-0.3,0.2-3.6,5.7-3.7,6c-2.9,1.8-3.9,6.5-7.2,7.5c-2.2,0.7-2.5,2.2-0.3,1.5
			c3.5-1.1,9.1-9.2,12.1-11c0.3,0.2,0.7,0.2,1.2,0c3.6-1.3,7.5-1.8,11.3-2.3c3.5-0.4,7.1-0.6,10-2.9c0.8-0.6,0.6-1.9,0-2.5
			c-0.7-0.7-1.8-0.6-2.5,0c-2.3,1.9-6.1,1.7-8.9,2.1c-1.3,0.2-2.5,0.3-3.8,0.5c4.6-3.8,8.8-8.3,12.9-12.8c0.3,0.2,0.6,0.4,1.1,0.4
			c0.1,0,0.2,0,0.2,0c0.3,0.1,0.7,0.1,1,0c4.3-1.8,8.8-2.5,13.4-2.6c4.7-0.1,9.4,0,14.2-0.1c2.3,0,2.3-3.6,0-3.6
			c-4.9,0-9.7,0-14.6,0.1c-4,0.1-8,0.7-11.8,1.9c2.4-2.7,4.9-5.4,7.4-7.9c1.9-1.9,3.8-3.7,5.9-5.4c7.9-1.8,16.1-2.6,24.2-2.1
			c4.2,0.2,8.5,1.3,12.7,0.6c3.5-0.5,6.7-2.7,7.7-6.2c0.7-2.2-2.8-3.2-3.5-1c-0.9,3.1-4.6,3.8-7.4,3.7c-4-0.1-8-0.8-12.1-0.9
			c-5.2-0.1-10.3,0.2-15.4,1c2.5-1.9,5-3.7,7.4-5.7c1.1-0.9,2.1-1.8,3.2-2.8c0.2-0.1,0.3-0.2,0.4-0.3c7.8-7.8,18.7-12.1,29.8-11.8
			C142.4,74.2,142.4,70.6,140.1,70.5z"/>
	</g>
</g>
</svg>
